<?xml version="1.0" standalone="no"?>
<!DOCTYPE svg PUBLIC "-//W3C//DTD SVG 20010904//EN"
 "http://www.w3.org/TR/2001/REC-SVG-20010904/DTD/svg10.dtd">
<svg version="1.0" xmlns="http://www.w3.org/2000/svg"
 width="512.000000pt" height="512.000000pt" viewBox="0 0 512.000000 512.000000"
 preserveAspectRatio="xMidYMid meet">
<metadata>
Created by potrace 1.14, written by Peter Selinger 2001-2017
</metadata>
<g transform="translate(0.000000,512.000000) scale(0.100000,-0.100000)"
fill="#000000" stroke="none">
<path d="M640 5105 c-30 -7 -57 -14 -60 -14 -77 -18 -184 -71 -263 -130 -113
-85 -209 -210 -258 -336 -62 -158 -58 -38 -58 -2070 0 -2007 -3 -1899 51
-2043 96 -257 327 -449 603 -502 68 -12 3721 -13 3795 0 80 13 89 16 155 41
212 79 387 253 463 461 54 146 51 32 49 2073 l-2 1890 -34 95 c-37 105 -70
173 -106 216 -5 7 -28 35 -50 63 -22 27 -48 53 -58 56 -9 4 -15 11 -12 16 4 5
0 9 -9 9 -8 0 -16 4 -18 8 -3 9 -89 69 -128 91 -35 19 -150 62 -180 68 -14 2
-43 8 -65 13 -23 6 -813 9 -1900 9 -1507 -1 -1870 -3 -1915 -14z"/>
</g>
</svg>
