<svg viewBox="0 0 756 755.33331">
  <g>
    <g>
      <path
         style={{fill:"#fefefe"}}
         d="M 0,377.66665 V 0 H 378 756 V 377.66665 755.33331 H 378 0 Z"
         />
      <path
         style={{fill:"#fefefe"}}
         d="M 345,754.54251 C 279.6791,750.84711 207.07698,723.28464 150.32694,680.63745 130.22589,665.53169 106.77498,643.39123 89.236187,622.96052 78.013673,609.88756 64.068123,590.60818 56.232197,577.33332 54.392483,574.21665 51.206339,568.80898 49.151878,565.31627 43.819189,556.25037 31.601909,531.21058 26.817128,519.54034 14.130031,488.59608 5.1779767,453.23826 2.0370253,421.66665 -0.41084853,397.06159 0.28184567,343.91184 3.3118512,323.8505 9.9338053,280.00726 20.758913,246.09306 40.748847,206.56341 59.808949,168.87247 80.078893,140.81582 109.82979,110.94498 139.87481,80.778818 170.36219,58.854544 209.26153,39.440984 236.42473,25.884603 255.50916,18.611974 283,11.340978 316.21927,2.5548824 351.06527,-0.75517371 395.33333,0.67032451 418.2764,1.4091257 426.73665,2.2216267 445,5.4401836 481.20965,11.821424 510.64833,21.548795 544.58401,38.345553 570.33005,51.088781 585.88004,60.481715 605,74.839704 c 47.21567,35.456246 83.81053,79.474526 110.59947,133.035126 11.40193,22.79651 17.7224,38.51354 25.75526,64.04561 5.3056,16.86372 10.95067,44.93837 12.61654,62.74622 0.92286,9.86479 1.92966,42.92524 1.5836,51.99999 -1.1256,29.5157 -1.68514,37.939 -3.16714,47.67886 -6.9416,45.61986 -20.67553,85.58163 -44.2084,128.63393 -31.3256,57.30871 -82.46502,109.38747 -139.43442,141.9954 -52.47818,30.03734 -106.44017,46.8116 -159.74491,49.65727 -15.09284,0.80573 -49.01367,0.7582 -64,-0.0896 z M 470.30687,529.37614 c 0.21205,-0.34311 13.13562,-56.36811 28.71904,-124.49999 15.58342,-68.13189 28.58484,-124.32616 28.89204,-124.87616 0.45796,-0.81991 3.0034,-1.06003 14.1343,-1.33333 l 13.57574,-0.33334 5.16925,-21.66666 c 2.84309,-11.91667 5.17679,-21.89167 5.18601,-22.16667 0.009,-0.275 -23.38968,-0.5 -51.99754,-0.5 h -52.0143 l -0.64492,1.5 c -0.66714,1.55168 -9.99316,41.16234 -9.99316,42.44424 0,0.49413 4.11473,0.72243 13.02092,0.72243 10.61118,0 13.08792,0.17457 13.3829,0.94328 0.27555,0.71807 -33.11514,149.62199 -34.80778,155.22338 -1.10616,3.66055 -2.65816,-0.35893 -17.37536,-45 -8.37108,-25.39166 -23.33658,-70.76666 -33.25666,-100.83333 l -18.0365,-54.66666 -54.45008,-0.17056 -54.45008,-0.17056 -0.35983,1.50389 c -3.81946,15.9631 -9.66753,41.50437 -9.66753,42.22263 0,0.7871 2.20911,0.94793 13.02092,0.94793 10.08118,0 13.09616,0.19603 13.35412,0.86827 0.53801,1.40203 -45.48016,201.91013 -46.48634,202.54795 -0.48878,0.30985 -6.64599,0.56795 -13.68268,0.57357 -7.0367,0.005 -12.95788,0.27537 -13.15818,0.59946 C 207.98982,483.88913 198,525.72453 198,526.73022 c 0,0.35472 22.23401,0.6031 53.9873,0.6031 h 53.9873 l 0.35407,-1.5 c 0.19474,-0.825 2.45046,-10.32318 5.0127,-21.10705 C 313.90362,493.94239 316,484.56739 316,483.89294 c 0,-1.15236 -0.85915,-1.22629 -14.25171,-1.22629 -10.69568,0 -14.42674,-0.21091 -14.95324,-0.8453 -0.50674,-0.61059 5.20496,-26.64552 20.57032,-93.76306 11.69952,-51.10475 21.41554,-93.06143 21.59116,-93.23705 0.17561,-0.17562 0.70724,-0.16818 1.18138,0.0165 0.47415,0.1847 17.63098,52.49676 38.12629,116.24901 20.49531,63.75226 37.51288,116.5882 37.81683,117.4132 l 0.55264,1.5 h 31.64382 c 18.92848,0 31.79874,-0.25067 32.02938,-0.62384 z"
         />
      <path
         style={{fill:"#fefefe"}}
         d="m 352.66667,754.90024 c -1.28334,-0.1208 -6.08334,-0.54113 -10.66667,-0.934 -62.48348,-5.356 -127.45933,-29.15593 -180.66667,-66.17613 C 144.05345,675.76718 130.14911,664.11478 113.08535,647.35625 90.311093,624.98937 70.408407,600.00922 56.232956,575.99998 54.392824,572.88332 51.168905,567.41291 49.068692,563.84353 43.809066,554.90462 31.620017,529.64523 27.040295,518.19404 12.834911,482.67475 4.6057598,447.12179 1.3031265,406.99999 0.31613629,395.00961 0.31473849,362.56964 1.3006561,349.66666 6.2336249,285.10748 27.252528,223.62917 62.967005,169.29835 89.008813,129.68214 122.66626,95.20219 161.84895,67.999998 187.26338,50.356278 220.38179,33.189128 249.33333,22.65188 280.05045,11.472032 312.14244,4.4968643 347.66667,1.279214 366.50832,-0.42739171 405.427,0.4751021 425.33333,3.0802431 468.92513,8.7851011 507.03538,20.362837 546,39.738275 c 38.90239,19.344498 69.86447,41.442316 99.35739,70.911975 14.02066,14.0096 34.76174,38.80397 41.00348,49.01641 0.67226,1.1 3.9848,6.2 7.3612,11.33333 16.51793,25.1136 31.15026,54.91599 41.07846,83.66667 1.45607,4.21667 3.38034,9.76667 4.27614,12.33333 1.84266,5.27987 6.19253,21.57127 8.241,30.86482 8.848,40.14222 10.6596,88.74002 4.92553,132.13518 -9.135,69.13409 -41.0004,140.08381 -87.01733,193.74832 C 627.89193,667.28678 583.0101,700.42578 529,724.33224 c -37.80467,16.7334 -80.74349,27.4078 -122,30.3286 -8.44415,0.5978 -48.64505,0.77494 -54.33333,0.2394 z M 471.24853,529.16665 c 0.30188,-0.825 13.2408,-57 28.75316,-124.83333 15.51235,-67.83333 28.49467,-123.70833 28.84959,-124.16666 0.4777,-0.61688 4.07393,-0.83334 13.84531,-0.83334 h 13.20001 l 0.69405,-2.16666 c 1.04276,-3.2553 10.07602,-41.63802 10.07602,-42.81349 0,-0.90674 -5.84245,-1.01984 -52.68096,-1.01984 h -52.68096 l -0.63907,1.5 c -0.86146,2.02198 -9.99901,41.46152 -9.99901,43.15776 0,1.29939 0.41566,1.34223 13.02092,1.34223 9.82137,0 13.09046,0.20477 13.3039,0.83334 0.42466,1.25058 -34.55632,153.89004 -35.3016,154.03849 -0.3539,0.0705 -15.52925,-45.02183 -33.72301,-100.20516 l -33.07957,-100.33333 -54.69216,-0.17052 c -43.26749,-0.13491 -54.82465,0.005 -55.32643,0.66667 -0.75086,0.99107 -10.21753,41.48869 -10.20835,43.67051 l 0.006,1.5 h 12.96065 c 7.12836,0 13.10837,0.23901 13.28891,0.53113 0.59107,0.95637 -45.40517,200.94615 -46.35459,201.54788 -0.49223,0.31198 -6.65227,0.57184 -13.68896,0.57745 -7.03669,0.005 -12.94655,0.25705 -13.133,0.55874 -0.54261,0.87795 -10.40635,42.73596 -10.40635,44.16061 0,1.26614 1.04062,1.29085 54.34763,1.29085 h 54.34763 l 0.65994,-1.5 c 1.06834,-2.42826 10.59872,-43.36855 10.23328,-43.95984 -0.18361,-0.29709 -6.77554,-0.54015 -14.64874,-0.54015 -12.42566,0 -14.36821,-0.13888 -14.71873,-1.05232 -0.38468,-1.00246 40.72141,-182.26025 41.77809,-184.22095 0.40871,-0.75838 0.63569,-0.694 1.17511,0.33334 0.36771,0.70029 17.06112,52.27326 37.09648,114.60659 20.03535,62.33334 36.89555,114.60833 37.46709,116.16667 l 1.03917,2.83333 h 32.29469 32.2947 z"
         />
      <path
         style={{fill:"#fefefe"}}
         d="m 352.66667,754.90024 c -1.28334,-0.1208 -6.08334,-0.54113 -10.66667,-0.934 -62.48348,-5.356 -127.45933,-29.15593 -180.66667,-66.17613 C 144.05345,675.76718 130.14911,664.11478 113.08535,647.35625 90.311093,624.98937 70.408407,600.00922 56.232956,575.99998 54.392824,572.88332 51.168905,567.41291 49.068692,563.84353 43.809066,554.90462 31.620017,529.64523 27.040295,518.19404 12.834911,482.67475 4.6057598,447.12179 1.3031265,406.99999 0.31613629,395.00961 0.31473849,362.56964 1.3006561,349.66666 6.2336249,285.10748 27.252528,223.62917 62.967005,169.29835 89.008813,129.68214 122.66626,95.20219 161.84895,67.999998 187.26338,50.356278 220.38179,33.189128 249.33333,22.65188 280.05045,11.472032 312.14244,4.4968643 347.66667,1.279214 366.50832,-0.42739171 405.427,0.4751021 425.33333,3.0802431 468.92513,8.7851011 507.03538,20.362837 546,39.738275 c 38.90239,19.344498 69.86447,41.442316 99.35739,70.911975 14.02066,14.0096 34.76174,38.80397 41.00348,49.01641 0.67226,1.1 3.9848,6.2 7.3612,11.33333 16.51793,25.1136 31.15026,54.91599 41.07846,83.66667 1.45607,4.21667 3.38034,9.76667 4.27614,12.33333 1.84266,5.27987 6.19253,21.57127 8.241,30.86482 8.848,40.14222 10.6596,88.74002 4.92553,132.13518 -9.135,69.13409 -41.0004,140.08381 -87.01733,193.74832 C 627.89193,667.28678 583.0101,700.42578 529,724.33224 c -37.80467,16.7334 -80.74349,27.4078 -122,30.3286 -8.44415,0.5978 -48.64505,0.77494 -54.33333,0.2394 z M 108.11089,531.23664 c 27.98901,-16.18651 66.48911,-38.41257 85.55578,-49.39125 19.06666,-10.97869 34.93748,-20.221 35.26849,-20.53848 0.35283,-0.33842 -1.06104,-3.96896 -3.41749,-8.77542 -20.99552,-42.82446 -22.95699,-91.66356 -5.49345,-136.78293 5.95715,-15.39106 17.52931,-34.85156 27.99719,-47.0819 2.66754,-3.11667 5.27701,-6.16572 5.79881,-6.77568 0.52181,-0.60995 2.44033,-7.50247 4.26339,-15.3167 1.83952,-7.88483 3.79121,-14.7343 4.38551,-15.39099 0.96706,-1.0686 2.57215,-1.1833 16.55895,-1.1833 h 15.48808 l 5.57526,-2.95476 C 323.13888,214.83057 349.60949,208.50315 378,208.42231 c 26.90011,-0.0766 51.20825,5.60876 75.55197,17.67065 l 7.8853,3.90703 h 53.48136 c 40.70773,0 53.67244,0.19108 54.28137,0.8 0.99644,0.99644 1.02124,4.10277 0.0682,8.54652 -0.40248,1.87669 -0.56468,3.57925 -0.36046,3.78348 0.52295,0.52295 112.42916,-76.54802 112.4093,-77.41747 -0.009,-0.39189 -3.1656,-4.91252 -7.0148,-10.04586 C 628.81466,95.00401 567.16599,50.54889 495.33333,26.611416 458.81159,14.44093 425.41905,8.6822897 385,7.5841084 341.66685,6.4067523 294.67113,14.165212 252,29.540898 210.46819,44.506051 167.32753,69.902678 134.66667,98.61427 63.834957,160.88118 20.388888,244.00691 9.7247647,337.66666 2.2507452,403.30869 13.288444,471.45165 41.310585,532.66665 c 5.581136,12.19212 14.106702,28 15.101065,28 0.445567,0 23.710223,-13.24351 51.69924,-29.43001 z m 363.13764,-2.06999 c 0.30188,-0.825 13.2408,-57 28.75316,-124.83333 15.51235,-67.83333 28.49467,-123.70833 28.84959,-124.16666 0.4777,-0.61688 4.07393,-0.83334 13.84531,-0.83334 h 13.20001 l 0.69405,-2.16666 c 1.04276,-3.2553 10.07602,-41.63802 10.07602,-42.81349 0,-0.90674 -5.84245,-1.01984 -52.68096,-1.01984 h -52.68096 l -0.63907,1.5 c -0.86146,2.02198 -9.99901,41.46152 -9.99901,43.15776 0,1.29939 0.41566,1.34223 13.02092,1.34223 9.82137,0 13.09046,0.20477 13.3039,0.83334 0.42466,1.25058 -34.55632,153.89004 -35.3016,154.03849 -0.3539,0.0705 -15.52925,-45.02183 -33.72301,-100.20516 l -33.07957,-100.33333 -54.69216,-0.17052 c -43.26749,-0.13491 -54.82465,0.005 -55.32643,0.66667 -0.75086,0.99107 -10.21753,41.48869 -10.20835,43.67051 l 0.006,1.5 h 12.96065 c 7.12836,0 13.10837,0.23901 13.28891,0.53113 0.59107,0.95637 -45.40517,200.94615 -46.35459,201.54788 -0.49223,0.31198 -6.65227,0.57184 -13.68896,0.57745 -7.03669,0.005 -12.94655,0.25705 -13.133,0.55874 -0.54261,0.87795 -10.40635,42.73596 -10.40635,44.16061 0,1.26614 1.04062,1.29085 54.34763,1.29085 h 54.34763 l 0.65994,-1.5 c 1.06834,-2.42826 10.59872,-43.36855 10.23328,-43.95984 -0.18361,-0.29709 -6.77554,-0.54015 -14.64874,-0.54015 -12.42566,0 -14.36821,-0.13888 -14.71873,-1.05232 -0.38468,-1.00246 40.72141,-182.26025 41.77809,-184.22095 0.40871,-0.75838 0.63569,-0.694 1.17511,0.33334 0.36771,0.70029 17.06112,52.27326 37.09648,114.60659 20.03535,62.33334 36.89555,114.60833 37.46709,116.16667 l 1.03917,2.83333 h 32.29469 32.2947 z"
         />
      <path
         style={{fill:"#fefefe"}}
         d="m 352.66667,754.90024 c -1.28334,-0.1208 -6.08334,-0.54113 -10.66667,-0.934 -62.48348,-5.356 -127.45933,-29.15593 -180.66667,-66.17613 C 144.05345,675.76718 130.14911,664.11478 113.08535,647.35625 90.311093,624.98937 70.408407,600.00922 56.232956,575.99998 54.392824,572.88332 51.168905,567.41291 49.068692,563.84353 43.809066,554.90462 31.620017,529.64523 27.040295,518.19404 12.834911,482.67475 4.6057598,447.12179 1.3031265,406.99999 0.31613629,395.00961 0.31473849,362.56964 1.3006561,349.66666 6.2336249,285.10748 27.252528,223.62917 62.967005,169.29835 89.008813,129.68214 122.66626,95.20219 161.84895,67.999998 187.26338,50.356278 220.38179,33.189128 249.33333,22.65188 280.05045,11.472032 312.14244,4.4968643 347.66667,1.279214 366.50832,-0.42739171 405.427,0.4751021 425.33333,3.0802431 468.92513,8.7851011 507.03538,20.362837 546,39.738275 c 38.90239,19.344498 69.86447,41.442316 99.35739,70.911975 14.02066,14.0096 34.76174,38.80397 41.00348,49.01641 0.67226,1.1 3.9848,6.2 7.3612,11.33333 16.51793,25.1136 31.15026,54.91599 41.07846,83.66667 1.45607,4.21667 3.38034,9.76667 4.27614,12.33333 1.84266,5.27987 6.19253,21.57127 8.241,30.86482 8.848,40.14222 10.6596,88.74002 4.92553,132.13518 -9.135,69.13409 -41.0004,140.08381 -87.01733,193.74832 C 627.89193,667.28678 583.0101,700.42578 529,724.33224 c -37.80467,16.7334 -80.74349,27.4078 -122,30.3286 -8.44415,0.5978 -48.64505,0.77494 -54.33333,0.2394 z m 45.67804,-7.56566 c 35.40063,-2.21074 64.72708,-7.84594 96.98862,-18.63694 87.93222,-29.41199 161.27171,-90.40161 206.19847,-171.47598 43.4792,-78.46221 57.0854,-171.63489 37.75733,-258.555 -3.23366,-14.54204 -8.22006,-32 -9.14,-32 -0.22486,0 -34.9254,11.22466 -77.1123,24.9437 -42.18692,13.71903 -84.3535,27.40706 -93.7035,30.41785 -9.35,3.01078 -17.27138,5.7225 -17.60308,6.02605 -0.35444,0.32436 0.10722,3.24408 1.11982,7.08214 4.02464,15.25454 5.35034,26.1302 5.34676,43.86359 -0.003,15.346 -1.42522,26.68935 -5.16996,41.23705 -5.69143,22.1103 -16.05964,43.29652 -30.5485,62.42229 -5.86927,7.74762 -20.85615,22.92009 -28.29066,28.64098 l -5.47897,4.21609 -1.83352,8.00393 c -2.71818,11.86576 -1.55528,11.14632 -18.01678,11.14632 h -13.71145 l -7.75438,2.95038 c -21.48154,8.17327 -45.93139,11.90078 -68.353,10.42078 -21.31206,-1.40676 -36.60652,-4.83311 -55.62338,-12.46105 l -8.9171,-3.57678 h -54.36374 c -60.79428,0 -56.80206,0.32829 -56.80206,-4.67095 0,-1.35537 2.23182,-11.87707 4.95958,-23.38154 2.72777,-11.50448 4.81854,-21.05828 4.64616,-21.23066 -0.17238,-0.17238 -1.14071,0.17527 -2.15184,0.77256 -1.01113,0.59729 -32.8769,18.97973 -70.81282,40.84986 -37.93593,21.87014 -69.344542,40.12152 -69.796926,40.55863 -0.648001,0.62613 -0.141808,1.92714 2.38576,6.13186 20.865423,34.71051 51.167986,69.22363 83.770086,95.40998 46.32169,37.20606 100.00202,62.19966 159.4848,74.25619 29.17091,5.9126 64.0636,8.41613 92.52658,6.63867 z M 108.11089,531.23664 c 27.98901,-16.18651 66.48911,-38.41257 85.55578,-49.39125 19.06666,-10.97869 34.93748,-20.221 35.26849,-20.53848 0.35283,-0.33842 -1.06104,-3.96896 -3.41749,-8.77542 -20.99552,-42.82446 -22.95699,-91.66356 -5.49345,-136.78293 5.95715,-15.39106 17.52931,-34.85156 27.99719,-47.0819 2.66754,-3.11667 5.27701,-6.16572 5.79881,-6.77568 0.52181,-0.60995 2.44033,-7.50247 4.26339,-15.3167 1.83952,-7.88483 3.79121,-14.7343 4.38551,-15.39099 0.96706,-1.0686 2.57215,-1.1833 16.55895,-1.1833 h 15.48808 l 5.57526,-2.95476 C 323.13888,214.83057 349.60949,208.50315 378,208.42231 c 26.90011,-0.0766 51.20825,5.60876 75.55197,17.67065 l 7.8853,3.90703 h 53.48136 c 40.70773,0 53.67244,0.19108 54.28137,0.8 0.99644,0.99644 1.02124,4.10277 0.0682,8.54652 -0.40248,1.87669 -0.56468,3.57925 -0.36046,3.78348 0.52295,0.52295 112.42916,-76.54802 112.4093,-77.41747 -0.009,-0.39189 -3.1656,-4.91252 -7.0148,-10.04586 C 628.81466,95.00401 567.16599,50.54889 495.33333,26.611416 458.81159,14.44093 425.41905,8.6822897 385,7.5841084 341.66685,6.4067523 294.67113,14.165212 252,29.540898 210.46819,44.506051 167.32753,69.902678 134.66667,98.61427 63.834957,160.88118 20.388888,244.00691 9.7247647,337.66666 2.2507452,403.30869 13.288444,471.45165 41.310585,532.66665 c 5.581136,12.19212 14.106702,28 15.101065,28 0.445567,0 23.710223,-13.24351 51.69924,-29.43001 z m 363.13764,-2.06999 c 0.30188,-0.825 13.2408,-57 28.75316,-124.83333 15.51235,-67.83333 28.49467,-123.70833 28.84959,-124.16666 0.4777,-0.61688 4.07393,-0.83334 13.84531,-0.83334 h 13.20001 l 0.69405,-2.16666 c 1.04276,-3.2553 10.07602,-41.63802 10.07602,-42.81349 0,-0.90674 -5.84245,-1.01984 -52.68096,-1.01984 h -52.68096 l -0.63907,1.5 c -0.86146,2.02198 -9.99901,41.46152 -9.99901,43.15776 0,1.29939 0.41566,1.34223 13.02092,1.34223 9.82137,0 13.09046,0.20477 13.3039,0.83334 0.42466,1.25058 -34.55632,153.89004 -35.3016,154.03849 -0.3539,0.0705 -15.52925,-45.02183 -33.72301,-100.20516 l -33.07957,-100.33333 -54.69216,-0.17052 c -43.26749,-0.13491 -54.82465,0.005 -55.32643,0.66667 -0.75086,0.99107 -10.21753,41.48869 -10.20835,43.67051 l 0.006,1.5 h 12.96065 c 7.12836,0 13.10837,0.23901 13.28891,0.53113 0.59107,0.95637 -45.40517,200.94615 -46.35459,201.54788 -0.49223,0.31198 -6.65227,0.57184 -13.68896,0.57745 -7.03669,0.005 -12.94655,0.25705 -13.133,0.55874 -0.54261,0.87795 -10.40635,42.73596 -10.40635,44.16061 0,1.26614 1.04062,1.29085 54.34763,1.29085 h 54.34763 l 0.65994,-1.5 c 1.06834,-2.42826 10.59872,-43.36855 10.23328,-43.95984 -0.18361,-0.29709 -6.77554,-0.54015 -14.64874,-0.54015 -12.42566,0 -14.36821,-0.13888 -14.71873,-1.05232 -0.38468,-1.00246 40.72141,-182.26025 41.77809,-184.22095 0.40871,-0.75838 0.63569,-0.694 1.17511,0.33334 0.36771,0.70029 17.06112,52.27326 37.09648,114.60659 20.03535,62.33334 36.89555,114.60833 37.46709,116.16667 l 1.03917,2.83333 h 32.29469 32.2947 z m -239.44615,-52 c 0.34777,-0.45833 0.98959,-2.45323 1.42626,-4.43311 0.6729,-3.05095 0.63742,-3.83868 -0.23271,-5.16667 -0.56467,-0.86178 -1.21572,-1.56688 -1.44679,-1.56688 -0.82357,0 -19.5288,11.00934 -19.53887,11.5 -0.0187,0.91194 19.09144,0.5901 19.79211,-0.33334 z"
         />
      <path
         style={{fill:"#fefefe"}}
         d="m 350.16667,754.87904 c -2.65834,-0.14893 -4.83334,-0.5134 -4.83334,-0.80993 0,-0.29647 -2.51644,-0.73253 -5.5921,-0.96893 -3.07566,-0.2364 -10.65066,-1.16674 -16.83333,-2.0674 C 253.84116,740.97158 188.6812,711.79544 134.69012,666.75611 123.86217,657.72346 102.68257,636.76605 92.828147,625.33331 79.0206,609.31432 65.461885,590.61516 56.331583,574.99998 54.187657,571.33332 51.559351,566.98332 50.490901,565.33332 46.805692,559.64227 31.436469,527.63783 27.120115,516.66665 16.981608,490.89688 10.507203,467.47414 6.0204205,440.33332 3.9767248,427.97088 2,410.96292 2,405.74117 c 0,-1.62988 -0.328227,-3.07282 -0.7293933,-3.20654 -0.94600767,-0.31533 -1.05641934,-47.1653 -0.11261,-47.78276 0.3518728,-0.2302 0.8284756,-3.57915 1.0591174,-7.4421 C 3.5814369,324.45911 9.405554,293.88904 17.453988,267.33333 34.062171,212.53481 64.938857,159.30282 103.68662,118.66666 134.9301,85.900511 168.57279,61.084244 209.31295,40.752226 235.57176,27.647354 256.72647,19.6915 284.66667,12.413231 301.47219,8.0354844 329.65223,3.3220723 345.63884,2.2149839 c 3.31531,-0.2295878 6.22967,-0.7271153 6.47636,-1.1056164 0.60677,-0.93095211 49.18175,-0.90061099 49.78581,0.031097 0.23778,0.3667514 3.88232,0.8706817 8.09899,1.1198455 17.69889,1.0458309 46.49183,6.0771981 67.62859,11.81763 35.46556,9.631916 75.17685,27.468408 107.37141,48.226319 28.09325,18.113532 56.23824,42.680341 77.93756,68.029071 8.01411,9.36189 20.00017,24.81477 22.75251,29.33333 0.67,1.1 3.98926,6.2 7.37613,11.33333 16.25373,24.63519 30.75173,54.04615 40.74427,82.6544 5.63366,16.12913 6.22326,17.99346 8.8584,28.01227 3.30126,12.55123 5.57786,23.09632 7.36,34.09106 1.83093,11.29562 3.95006,29.62959 3.9618,34.2756 0.007,2.035 0.3332,4.02389 0.72906,4.41976 1.0028,1.0028 0.9986,47.08524 -0.007,47.41955 -0.39347,0.13116 -0.7154,1.68142 -0.7154,3.44504 0,3.95954 -1.65034,19.80896 -3.0496,29.28776 -8.2932,56.17831 -31.66567,114.31317 -64.88694,161.39455 -39.79714,56.40072 -92.35033,99.1218 -157.02954,127.65106 -33.73259,14.879 -71.16582,25.03894 -105.81182,28.71874 -5.62216,0.59713 -10.8221,1.41493 -11.55544,1.81733 -1.32778,0.72853 -50.89356,1.2862 -61.5,0.69193 z m 48.17804,-7.54446 c 35.40063,-2.21074 64.72708,-7.84594 96.98862,-18.63694 87.93222,-29.41199 161.27171,-90.40161 206.19847,-171.47598 43.4792,-78.46221 57.0854,-171.63489 37.75733,-258.555 -3.23366,-14.54204 -8.22006,-32 -9.14,-32 -0.22486,0 -34.9254,11.22466 -77.1123,24.9437 -42.18692,13.71903 -84.3535,27.40706 -93.7035,30.41785 -9.35,3.01078 -17.27138,5.7225 -17.60308,6.02605 -0.35444,0.32436 0.10722,3.24408 1.11982,7.08214 4.02464,15.25454 5.35034,26.1302 5.34676,43.86359 -0.003,15.346 -1.42522,26.68935 -5.16996,41.23705 -5.69143,22.1103 -16.05964,43.29652 -30.5485,62.42229 -5.86927,7.74762 -20.85615,22.92009 -28.29066,28.64098 l -5.47897,4.21609 -1.83352,8.00393 c -2.71818,11.86576 -1.55528,11.14632 -18.01678,11.14632 h -13.71145 l -7.75438,2.95038 c -21.48154,8.17327 -45.93139,11.90078 -68.353,10.42078 -21.31206,-1.40676 -36.60652,-4.83311 -55.62338,-12.46105 l -8.9171,-3.57678 h -54.36374 c -60.79428,0 -56.80206,0.32829 -56.80206,-4.67095 0,-1.35537 2.23182,-11.87707 4.95958,-23.38154 2.72777,-11.50448 4.81854,-21.05828 4.64616,-21.23066 -0.17238,-0.17238 -1.14071,0.17527 -2.15184,0.77256 -1.01113,0.59729 -32.8769,18.97973 -70.81282,40.84986 -37.93593,21.87014 -69.344542,40.12152 -69.796926,40.55863 -0.648001,0.62613 -0.141808,1.92714 2.38576,6.13186 20.865423,34.71051 51.167986,69.22363 83.770086,95.40998 46.32169,37.20606 100.00202,62.19966 159.4848,74.25619 29.17091,5.9126 64.0636,8.41613 92.52658,6.63867 z M 108.11089,531.23664 c 27.98901,-16.18651 66.48911,-38.41257 85.55578,-49.39125 19.06666,-10.97869 34.93748,-20.221 35.26849,-20.53848 0.35283,-0.33842 -1.06104,-3.96896 -3.41749,-8.77542 -20.99552,-42.82446 -22.95699,-91.66356 -5.49345,-136.78293 5.95715,-15.39106 17.52931,-34.85156 27.99719,-47.0819 2.66754,-3.11667 5.27701,-6.16572 5.79881,-6.77568 0.52181,-0.60995 2.44033,-7.50247 4.26339,-15.3167 1.83952,-7.88483 3.79121,-14.7343 4.38551,-15.39099 0.96706,-1.0686 2.57215,-1.1833 16.55895,-1.1833 h 15.48808 l 5.57526,-2.95476 C 323.13888,214.83057 349.60949,208.50315 378,208.42231 c 26.90011,-0.0766 51.20825,5.60876 75.55197,17.67065 l 7.8853,3.90703 h 53.48136 c 40.70773,0 53.67244,0.19108 54.28137,0.8 0.99644,0.99644 1.02124,4.10277 0.0682,8.54652 -0.40248,1.87669 -0.56468,3.57925 -0.36046,3.78348 0.52295,0.52295 112.42916,-76.54802 112.4093,-77.41747 -0.009,-0.39189 -3.1656,-4.91252 -7.0148,-10.04586 C 628.81466,95.00401 567.16599,50.54889 495.33333,26.611416 458.81159,14.44093 425.41905,8.6822897 385,7.5841084 341.66685,6.4067523 294.67113,14.165212 252,29.540898 210.46819,44.506051 167.32753,69.902678 134.66667,98.61427 63.834957,160.88118 20.388888,244.00691 9.7247647,337.66666 2.2507452,403.30869 13.288444,471.45165 41.310585,532.66665 c 5.581136,12.19212 14.106702,28 15.101065,28 0.445567,0 23.710223,-13.24351 51.69924,-29.43001 z m 363.07729,-0.73666 c 0.37662,-0.45833 13.54024,-56.93333 29.25248,-125.49999 l 28.56771,-124.66667 13.47972,-0.18042 c 11.9887,-0.16046 13.5463,-0.30794 14.0817,-1.33333 1.09904,-2.10491 10.89069,-44.19332 10.51133,-45.1819 -0.5459,-1.4226 -105.17055,-1.46982 -106.35056,-0.048 -1.10376,1.32994 -11.01617,44.03778 -10.52074,45.32885 0.36318,0.94644 2.04082,1.08147 13.43593,1.08147 7.1615,0 13.02092,0.17965 13.02092,0.39921 0,0.82463 -34.0488,150.00595 -34.60102,151.60079 -0.42683,1.23272 -0.67748,1.4063 -0.96266,0.66666 -0.21207,-0.55 -14.96104,-45.22096 -32.77549,-99.2688 -17.81445,-54.04784 -32.68643,-98.82284 -33.04883,-99.5 -0.63251,-1.18185 -2.84195,-1.23078 -55.13546,-1.22098 -29.9621,0.005 -54.84005,0.24122 -55.28434,0.52356 -0.9315,0.59196 -11.01966,43.01042 -10.72276,45.08684 0.19084,1.33473 0.62571,1.38525 13.43257,1.56037 l 13.23534,0.181 -0.36929,1.48567 c -0.20311,0.81713 -10.46954,45.73568 -22.8143,99.81901 -12.34476,54.08333 -22.74622,98.70833 -23.11435,99.16667 -0.4949,0.61614 -4.11484,0.83333 -13.88971,0.83333 h -13.22036 l -0.59614,2.16667 c -2.71951,9.88397 -10.22346,43.30321 -9.90793,44.12546 0.35769,0.93212 6.0764,1.04013 54.58714,1.03099 29.80317,-0.005 54.54269,-0.23602 54.97669,-0.51201 0.93448,-0.59424 11.55472,-44.67472 11.06862,-45.94148 -0.26034,-0.67842 -3.54286,-0.86963 -14.92905,-0.86963 -14.13215,0 -14.59534,-0.0421 -14.59534,-1.32822 0,-0.73052 9.3,-41.95389 20.66667,-91.60749 11.36666,-49.65359 20.66666,-90.5159 20.66666,-90.80511 0,-0.28922 0.27774,-0.24084 0.6172,0.10749 0.33946,0.34833 17.31982,52.53333 37.73415,115.96666 20.41433,63.43334 37.39715,115.85833 37.73959,116.5 0.57982,1.08643 2.83896,1.16667 32.85089,1.16667 24.97294,0 32.38241,-0.1876 32.91302,-0.83334 z m -239.3858,-53.33333 c 0.34777,-0.45833 0.98959,-2.45323 1.42626,-4.43311 0.6729,-3.05095 0.63742,-3.83868 -0.23271,-5.16667 -0.56467,-0.86178 -1.21572,-1.56688 -1.44679,-1.56688 -0.82357,0 -19.5288,11.00934 -19.53887,11.5 -0.0187,0.91194 19.09144,0.5901 19.79211,-0.33334 z"
         />
      <path
         style={{fill:"#fefefe"}}
         d="m 350.16667,754.87904 c -2.65834,-0.14893 -4.83334,-0.5134 -4.83334,-0.80993 0,-0.29647 -2.51644,-0.73253 -5.5921,-0.96893 -3.07566,-0.2364 -10.65066,-1.16674 -16.83333,-2.0674 C 253.84116,740.97158 188.6812,711.79544 134.69012,666.75611 123.86217,657.72346 102.68257,636.76605 92.828147,625.33331 79.0206,609.31432 65.461885,590.61516 56.331583,574.99998 54.187657,571.33332 51.559351,566.98332 50.490901,565.33332 46.805692,559.64227 31.436469,527.63783 27.120115,516.66665 16.981608,490.89688 10.507203,467.47414 6.0204205,440.33332 3.9767248,427.97088 2,410.96292 2,405.74117 c 0,-1.62988 -0.328227,-3.07282 -0.7293933,-3.20654 -0.94600767,-0.31533 -1.05641934,-47.1653 -0.11261,-47.78276 0.3518728,-0.2302 0.8284756,-3.57915 1.0591174,-7.4421 C 3.5814369,324.45911 9.405554,293.88904 17.453988,267.33333 34.062171,212.53481 64.938857,159.30282 103.68662,118.66666 134.9301,85.900511 168.57279,61.084244 209.31295,40.752226 235.57176,27.647354 256.72647,19.6915 284.66667,12.413231 301.47219,8.0354844 329.65223,3.3220723 345.63884,2.2149839 c 3.31531,-0.2295878 6.22967,-0.7271153 6.47636,-1.1056164 0.60677,-0.93095211 49.18175,-0.90061099 49.78581,0.031097 0.23778,0.3667514 3.88232,0.8706817 8.09899,1.1198455 17.69889,1.0458309 46.49183,6.0771981 67.62859,11.81763 35.46556,9.631916 75.17685,27.468408 107.37141,48.226319 28.09325,18.113532 56.23824,42.680341 77.93756,68.029071 8.01411,9.36189 20.00017,24.81477 22.75251,29.33333 0.67,1.1 3.98926,6.2 7.37613,11.33333 16.25373,24.63519 30.75173,54.04615 40.74427,82.6544 5.63366,16.12913 6.22326,17.99346 8.8584,28.01227 3.30126,12.55123 5.57786,23.09632 7.36,34.09106 1.83093,11.29562 3.95006,29.62959 3.9618,34.2756 0.007,2.035 0.3332,4.02389 0.72906,4.41976 1.0028,1.0028 0.9986,47.08524 -0.007,47.41955 -0.39347,0.13116 -0.7154,1.68142 -0.7154,3.44504 0,3.95954 -1.65034,19.80896 -3.0496,29.28776 -8.2932,56.17831 -31.66567,114.31317 -64.88694,161.39455 -39.79714,56.40072 -92.35033,99.1218 -157.02954,127.65106 -33.73259,14.879 -71.16582,25.03894 -105.81182,28.71874 -5.62216,0.59713 -10.8221,1.41493 -11.55544,1.81733 -1.32778,0.72853 -50.89356,1.2862 -61.5,0.69193 z m 66.03968,-7.8222 c 45.17601,-5.14873 83.93921,-16.2498 123.46032,-35.35673 55.84986,-27.0012 103.83199,-67.44738 139.98933,-118.00286 39.88353,-55.76548 63.343,-121.02609 68.39027,-190.25111 1.62053,-22.2261 0.2716,-57.07574 -3.07514,-79.44615 -3.08373,-20.61265 -11.40346,-55.37509 -13.834,-57.8029 -0.62693,-0.62622 -16.7952,4.40272 -73.47046,22.85204 C 617.7,302.05936 575.1,315.88682 563,319.77682 c -12.1,3.89 -22.27434,7.32092 -22.60964,7.62426 -0.36275,0.32817 -0.0207,2.57828 0.8445,5.55611 7.35234,25.30385 8.02141,56.8727 1.76705,83.37613 -5.66648,24.0123 -15.89334,45.37666 -31.5934,66 -6.1457,8.07288 -20.38952,22.52684 -27.88686,28.29826 -6.01121,4.6274 -5.87464,4.37958 -8.19401,14.86903 -1.07184,4.84747 -1.80023,6.75478 -2.86418,7.5 -1.15342,0.80789 -4.00415,0.99937 -14.87823,0.99937 H 444.1338 l -6.12423,2.36518 c -38.79216,14.98155 -83.76533,14.47532 -123.45452,-1.38966 l -9.11162,-3.64218 h -54.24004 c -58.90554,0 -57.20339,0.10626 -57.20339,-3.571 0,-1.15544 4.88495,-22.40289 10.32952,-44.929 0.26027,-1.07684 0.0647,-1.5 -0.69347,-1.5 -1.3294,0 -144.850707,82.72914 -145.228282,83.71308 -0.647856,1.68829 15.268805,25.72656 27.327319,41.27131 18.844033,24.29203 44.868543,49.83468 69.907443,68.61307 43.97908,32.98293 94.05047,55.2934 149.79053,66.74266 10.58489,2.1742 28.42083,4.75034 38.90027,5.61854 4.76667,0.39493 9.71667,0.83653 11,0.98133 6.13849,0.69273 52.19756,-0.22767 60.87302,-1.21647 z M 108.11089,531.23664 c 27.98901,-16.18651 66.48911,-38.41257 85.55578,-49.39125 19.06666,-10.97869 34.93748,-20.221 35.26849,-20.53848 0.35283,-0.33842 -1.06104,-3.96896 -3.41749,-8.77542 -20.99552,-42.82446 -22.95699,-91.66356 -5.49345,-136.78293 5.95715,-15.39106 17.52931,-34.85156 27.99719,-47.0819 2.66754,-3.11667 5.27701,-6.16572 5.79881,-6.77568 0.52181,-0.60995 2.44033,-7.50247 4.26339,-15.3167 1.83952,-7.88483 3.79121,-14.7343 4.38551,-15.39099 0.96706,-1.0686 2.57215,-1.1833 16.55895,-1.1833 h 15.48808 l 5.57526,-2.95476 C 323.13888,214.83057 349.60949,208.50315 378,208.42231 c 26.90011,-0.0766 51.20825,5.60876 75.55197,17.67065 l 7.8853,3.90703 h 53.48136 c 40.70773,0 53.67244,0.19108 54.28137,0.8 0.99644,0.99644 1.02124,4.10277 0.0682,8.54652 -0.40248,1.87669 -0.56468,3.57925 -0.36046,3.78348 0.52295,0.52295 112.42916,-76.54802 112.4093,-77.41747 -0.009,-0.39189 -3.1656,-4.91252 -7.0148,-10.04586 C 628.81466,95.00401 567.16599,50.54889 495.33333,26.611416 458.81159,14.44093 425.41905,8.6822897 385,7.5841084 341.66685,6.4067523 294.67113,14.165212 252,29.540898 210.46819,44.506051 167.32753,69.902678 134.66667,98.61427 63.834957,160.88118 20.388888,244.00691 9.7247647,337.66666 2.2507452,403.30869 13.288444,471.45165 41.310585,532.66665 c 5.581136,12.19212 14.106702,28 15.101065,28 0.445567,0 23.710223,-13.24351 51.69924,-29.43001 z m 363.07729,-0.73666 c 0.37662,-0.45833 13.54024,-56.93333 29.25248,-125.49999 l 28.56771,-124.66667 13.47972,-0.18042 c 11.9887,-0.16046 13.5463,-0.30794 14.0817,-1.33333 1.09904,-2.10491 10.89069,-44.19332 10.51133,-45.1819 -0.5459,-1.4226 -105.17055,-1.46982 -106.35056,-0.048 -1.10376,1.32994 -11.01617,44.03778 -10.52074,45.32885 0.36318,0.94644 2.04082,1.08147 13.43593,1.08147 7.1615,0 13.02092,0.17965 13.02092,0.39921 0,0.82463 -34.0488,150.00595 -34.60102,151.60079 -0.42683,1.23272 -0.67748,1.4063 -0.96266,0.66666 -0.21207,-0.55 -14.96104,-45.22096 -32.77549,-99.2688 -17.81445,-54.04784 -32.68643,-98.82284 -33.04883,-99.5 -0.63251,-1.18185 -2.84195,-1.23078 -55.13546,-1.22098 -29.9621,0.005 -54.84005,0.24122 -55.28434,0.52356 -0.9315,0.59196 -11.01966,43.01042 -10.72276,45.08684 0.19084,1.33473 0.62571,1.38525 13.43257,1.56037 l 13.23534,0.181 -0.36929,1.48567 c -0.20311,0.81713 -10.46954,45.73568 -22.8143,99.81901 -12.34476,54.08333 -22.74622,98.70833 -23.11435,99.16667 -0.4949,0.61614 -4.11484,0.83333 -13.88971,0.83333 h -13.22036 l -0.59614,2.16667 c -2.71951,9.88397 -10.22346,43.30321 -9.90793,44.12546 0.35769,0.93212 6.0764,1.04013 54.58714,1.03099 29.80317,-0.005 54.54269,-0.23602 54.97669,-0.51201 0.93448,-0.59424 11.55472,-44.67472 11.06862,-45.94148 -0.26034,-0.67842 -3.54286,-0.86963 -14.92905,-0.86963 -14.13215,0 -14.59534,-0.0421 -14.59534,-1.32822 0,-0.73052 9.3,-41.95389 20.66667,-91.60749 11.36666,-49.65359 20.66666,-90.5159 20.66666,-90.80511 0,-0.28922 0.27774,-0.24084 0.6172,0.10749 0.33946,0.34833 17.31982,52.53333 37.73415,115.96666 20.41433,63.43334 37.39715,115.85833 37.73959,116.5 0.57982,1.08643 2.83896,1.16667 32.85089,1.16667 24.97294,0 32.38241,-0.1876 32.91302,-0.83334 z M 233.96009,473.52635 c 0.80376,-4.02424 0.81564,-5.07691 0.0729,-6.46465 -0.48794,-0.91171 -1.26892,-1.80416 -1.73552,-1.98321 -0.96418,-0.37 -22.46606,11.76047 -22.84126,12.8861 -0.17318,0.51952 3.22322,0.68018 11.64965,0.55103 L 233,478.33332 Z"
         />
      <path
         style={{fill:"#fefefe"}}
         d="m 350,754.66664 -5,-0.42646 4.66667,-0.2268 c 2.56666,-0.12474 3.61666,-0.32567 2.33333,-0.44647 -1.28333,-0.1208 -6.08333,-0.54113 -10.66667,-0.934 -76.3069,-6.54093 -154.08154,-40.11293 -212.66666,-91.79914 -9.9263,-8.75739 -28.79933,-27.84147 -36.795117,-37.20658 -11.920166,-13.96156 -26.452277,-34.22507 -34.873304,-48.62721 -2.143925,-3.66666 -4.768428,-8.01666 -5.83223,-9.66666 C 47.764675,560.05769 33.091838,530.01622 28.845114,519.63303 12.831043,480.47884 3.6880299,438.19777 2.0381703,395.66665 l -0.4913631,-12.66666 -0.2180623,9.66666 -0.2180622,9.66667 -0.43573997,-12.25204 c -0.23965698,-6.73863 -0.23921874,-17.53862 9.7334e-4,-24 l 0.43671443,-11.74796 0.2487129,9.33334 c 0.2139783,8.02986 0.2732955,8.44883 0.4247336,3 1.324739,-47.66493 11.529004,-94.223 30.143102,-137.53116 4.963398,-11.54801 16.806704,-34.64755 23.279876,-45.40579 C 72.593613,154.83706 89.708693,132.96908 112.7504,110.20902 141.5514,81.760057 171.71165,60.28196 209.33333,41.429148 236.45185,27.83964 256.5253,20.216871 284,13.074954 306.43659,7.2426684 340.34529,2.3095393 361,1.8727871 l 6.66667,-0.1409695 -8,-0.3659088 C 351.85817,1.0087593 352.00979,0.98905424 366,0.54275777 c 7.88333,-0.25148321 19.28333,-0.22655075 25.33333,0.0554055 l 11,0.51264763 -9,0.2469581 C 386.42152,1.5474278 385.64811,1.6447017 390,1.7770167 c 36.45723,1.1084473 71.36625,7.092697 105,17.9995343 29.22659,9.477677 65.40818,27.000444 92,44.555664 48.11287,31.762855 85.2158,71.211245 115.25473,122.540585 12.33194,21.07233 25.73587,50.20485 32.01247,69.57688 0.92967,2.86934 2.4414,7.23225 3.35933,9.69537 0.918,2.46312 2.86667,9.06311 4.33034,14.66666 7.1544,27.38962 10.9676,52.80419 11.98893,79.90545 l 0.51313,13.61616 0.21827,-10 0.21827,-10 0.407,11.74797 c 0.22386,6.46139 0.22433,17.26138 0,24 l -0.40607,12.25203 -0.22207,-10 -0.22213,-10 -0.47933,12.66667 c -2.2004,58.14449 -17.73594,113.14755 -47.035,166.52539 -39.63387,72.20619 -100.78136,127.51553 -179.23828,162.12526 -36.74074,16.20747 -79.022,26.77487 -118.49874,29.61654 -7.44843,0.53613 -7.47762,0.54473 -2.53518,0.7432 l 5,0.20086 -6,0.4904 c -7.22776,0.59087 -48.63442,0.5648 -55.66667,-0.0353 z m 64.66434,-6.96693 c 122.12165,-12.5734 229.45613,-83.4095 288.45279,-190.36639 26.59874,-48.2217 41.5044,-99.3067 45.61514,-156.33333 0.96733,-13.41999 0.3956,-46.45869 -1.03254,-59.66667 -2.61753,-24.20772 -7.81773,-50.11986 -14.1484,-70.5 -1.44193,-4.64202 -1.93093,-5.49999 -3.13433,-5.49999 -0.78427,0 -36.82393,11.51509 -80.08812,25.58909 -43.26422,14.074 -85.77632,27.88502 -94.47134,30.69115 -8.69501,2.80613 -15.97928,5.37739 -16.18725,5.71389 -0.20798,0.33651 0.36814,3.25049 1.28025,6.47552 4.38423,15.5017 6.00041,29.70326 5.53367,48.62523 -0.81958,33.22679 -9.36916,60.53328 -27.94027,89.23844 -8.26544,12.7758 -23.41443,29.29957 -35.3636,38.57289 -6.33945,4.91981 -5.99736,4.30426 -8.20287,14.76044 -1.8812,8.91869 -0.69898,8.33334 -16.83076,8.33334 h -13.82254 l -5.99542,2.35583 c -12.67309,4.97975 -25.65351,8.15555 -40.99542,10.02999 -11.01499,1.34579 -33.24618,1.00022 -44,-0.68394 -14.27084,-2.23498 -29.41784,-6.51942 -41.66666,-11.78573 l -6,-2.57967 -54.7,-10e-4 c -41.65378,-10e-4 -54.89081,-0.19238 -55.5,-0.80157 -1.49383,-1.49383 -1.61972,-0.86403 9.53482,-47.7 0.27628,-1.16003 0.0662,-1.5 -0.92685,-1.5 -0.70625,0 -32.13697,17.79003 -69.84603,39.53341 -37.70907,21.7428 -70.286943,40.51482 -72.395277,41.71502 C 59.505163,563.241 58,564.54675 58,565.24112 c 0,2.20335 13.950833,23.72023 24.11894,37.19952 17.215353,22.82143 41.45444,47.65551 64.54773,66.13214 25.34428,20.27767 55.10224,38.03946 85.36679,50.9534 35.46391,15.13253 77.49671,25.59146 114.29987,28.441 5.13334,0.39746 10.53334,0.8362 12,0.975 6.68209,0.6322 46.69474,-0.25034 56.33101,-1.24247 z M 114.19585,528.71367 C 145.07147,510.86364 183.75833,488.52269 200.16667,479.0671 219.48519,467.93446 230,461.50707 230,460.83088 c 0,-0.57433 -1.76092,-4.67123 -3.91315,-9.10423 -7.2661,-14.96612 -12.5528,-31.8063 -15.1923,-48.39333 -0.96572,-6.06873 -1.21762,-11.41833 -1.20856,-25.66667 0.0101,-15.8688 0.19476,-19.02613 1.55978,-26.66666 5.83126,-32.63985 18.35506,-59.46783 39.06437,-83.68208 l 5.238,-6.1245 3.47089,-14.66942 c 1.99134,-8.41622 3.8638,-14.91825 4.3926,-15.25316 0.50694,-0.32106 7.85357,-0.58835 16.32585,-0.59396 l 15.40415,-0.0102 6.26252,-3.28399 c 24.0191,-12.5953 51.10749,-18.57325 80.92918,-17.8597 25.8903,0.61948 47.40226,5.88276 71.05783,17.38552 l 7.7123,3.75018 53.54233,0.17066 c 61.30326,0.1954 55.6009,-0.5044 54.06499,6.63499 -1.25122,5.81608 -1.24583,6.88357 0.0343,6.79112 0.59314,-0.0429 26.07308,-17.29284 56.62208,-38.33333 30.549,-21.0405 55.82929,-38.44825 56.17849,-38.6839 1.2892,-0.87009 -0.3582,-3.79955 -7.44467,-13.23821 C 664.06618,140.6342 654.51107,129.62694 641.45527,116.39284 584.02383,58.177111 509.71441,21.313293 426.33333,9.673999 406.33645,6.8826038 372.10931,5.8135164 351.96659,7.3511484 271.36861,13.503746 198.42035,43.594501 135.66667,96.573684 126.05303,104.6899 102.13959,128.88584 93.7357,139 44.949141,197.71503 16.625689,265.00967 8.2955967,341.99999 6.825522,355.58706 6.2974774,386.38652 7.282962,401.06433 c 3.634675,54.1349 18.512779,106.52855 43.062121,151.64446 4.71329,8.66191 5.277459,9.39419 6.790316,8.81365 0.507638,-0.1948 26.184841,-14.95874 57.060451,-32.80877 z m 276.56685,11.26104 c 12.25664,-1.2284 27.90397,-4.23489 27.90397,-5.36149 0,-0.33728 -3.09266,-0.61324 -6.87258,-0.61324 -4.47623,0 -7.25008,-0.29056 -7.9552,-0.83333 C 403.18597,532.66407 388.552,488.14454 366.9687,420.99999 347.28553,359.76666 330.93721,309.4035 330.63909,309.08186 c -0.29812,-0.32165 -0.8524,0.57835 -1.23176,2 -2.8572,10.70754 -38.05651,166.40708 -37.73689,166.92423 0.24749,0.40044 5.6244,0.66056 13.65462,0.66056 14.27264,0 15.34161,0.2494 15.34161,3.5794 0,0.81628 -2.21855,10.76985 -4.9301,22.11904 -3.71244,15.53841 -4.74154,20.82714 -4.16667,21.41327 1.0603,1.08105 8.22584,3.94466 15.76343,6.29964 22.92364,7.16206 44.25808,9.81812 63.42937,7.89671 z m 80.48206,-8.57255 c 0.56986,-0.36101 11.46779,-46.64055 29.07943,-123.48979 15.4924,-67.60181 28.3811,-123.88738 28.64154,-125.07905 l 0.47354,-2.16666 h 12.81962 c 9.37144,0 13.13386,-0.2298 13.98797,-0.85433 0.84273,-0.61623 2.67034,-7.14854 6.55752,-23.43818 5.14643,-21.56666 5.33402,-22.62418 4.16497,-23.47901 -0.99974,-0.73103 -10.78709,-0.89515 -53.38248,-0.89515 -46.52774,0 -52.27139,0.1131 -53.20592,1.04762 -0.57619,0.57619 -1.04762,1.20407 -1.04762,1.39529 0,0.19121 -2.25,9.95117 -5,21.6888 -2.75,11.73762 -5,21.87475 -5,22.52696 0,1.74918 1.77851,1.98885 14.83334,1.9989 6.50833,0.005 11.83333,0.1488 11.83333,0.31954 0,0.81262 -34.11813,150.0299 -34.35901,150.27079 -0.38209,0.38209 2.28054,8.3462 -33.2971,-99.5939 -20.93992,-63.5303 -32.69582,-98.26256 -33.4444,-98.80993 -1.67702,-1.22627 -108.80879,-1.23669 -110.37792,-0.0107 -1.02454,0.80047 -11.19519,42.23531 -11.19031,45.58891 0.003,2.01946 1.36791,2.22496 14.84811,2.23532 l 11.84603,0.009 -0.3529,1.5 c -0.19409,0.825 -10.41015,45.57038 -22.70235,99.43417 -12.2922,53.8638 -22.50681,98.1888 -22.69914,98.5 -0.19234,0.3112 -6.33842,0.56582 -13.65798,0.56582 -13.16934,0 -13.31488,0.0157 -13.94075,1.5 -0.79947,1.89606 -10.67903,43.78481 -10.67515,45.26201 0.001,0.60244 0.4774,1.27744 1.0574,1.5 0.57998,0.22256 25.27264,0.40466 54.87258,0.40466 42.04173,0 54.0512,-0.18235 54.88354,-0.83334 1.23164,-0.96328 11.38111,-42.9818 11.0566,-45.77403 l -0.20058,-1.72596 -14.5,-0.17967 c -13.23059,-0.16394 -14.50059,-0.28067 -14.50671,-1.33333 -0.0103,-1.76961 40.89217,-180.15367 41.30821,-180.15367 0.20086,0 17.0152,51.81316 37.36518,115.14035 21.16316,65.85769 37.49934,115.65097 38.16665,116.33333 1.08899,1.11355 3.28629,1.1923 33,1.18278 17.50833,-0.005 32.24347,-0.27004 32.74476,-0.58762 z m 20.25913,-37.56884 c 9.1579,-9.02399 15.40339,-16.77153 23.24326,-28.83333 2.85989,-4.4 5.66174,-8.47517 6.22633,-9.05593 0.56459,-0.58076 1.02652,-1.43689 1.02652,-1.90251 0,-0.46562 1.01734,-2.84046 2.26075,-5.27741 7.06145,-13.83963 14.07175,-39.20941 15.69511,-56.79945 1.68152,-18.22021 -0.35335,-39.73383 -5.29343,-55.9647 -0.7254,-2.38333 -1.3212,-5.31831 -1.324,-6.52216 -0.003,-1.20386 -0.7551,-3.66889 -1.67176,-5.47784 C 530.75,322.19104 530,320.15101 530,319.4666 c 0,-0.68442 -0.225,-1.46939 -0.5,-1.74439 -0.275,-0.275 -0.5,-0.72345 -0.5,-0.99657 0,-0.2731 -0.50588,-1.5231 -1.12417,-2.77777 -0.6183,-1.25467 -1.29118,-2.82523 -1.4953,-3.49013 -0.42543,-1.38586 -1.71386,-0.89467 -1.71386,0.65338 0,0.56784 -9.75,43.59082 -21.66667,95.60663 -11.91667,52.01581 -21.66667,94.73351 -21.66667,94.92821 0,1.54016 3.08009,-0.82584 10.17056,-7.81264 z M 233.24381,478.16665 c 0.34322,-0.64166 0.9873,-3.01364 1.43127,-5.27104 0.72222,-3.67218 0.67894,-4.32155 -0.411,-6.16667 -0.74755,-1.26549 -1.74223,-2.04831 -2.57449,-2.02611 -2.07582,0.0554 -22.64795,12.17574 -22.90159,13.49281 -0.2,1.03851 0.82913,1.13768 11.80633,1.13768 10.77061,0 12.09054,-0.12174 12.64948,-1.16667 z m 4.4191,-22.33333 c 4.46726,-18.87706 39.0031,-171.17578 39.00338,-172 3.4e-4,-1.06668 -0.99948,-1.16666 -11.66629,-1.16666 -10.51852,0 -11.78968,-0.12302 -12.91667,-1.25 -0.6875,-0.6875 -1.41144,-1.6625 -1.60876,-2.16667 -0.48015,-1.22682 -2.84226,1.71908 -8.98844,11.20989 -4.85782,7.50138 -12.05545,20.3116 -12.47722,22.20678 -0.12241,0.55 -1.27964,3.90595 -2.57162,7.45767 -3.1931,8.77794 -6.69638,21.02164 -7.97604,27.87566 -2.22168,11.89967 -2.4713,13.94434 -2.8912,23.68308 -0.53363,12.37618 0.51727,24.53263 3.2548,37.65025 1.10954,5.31667 2.15045,10.41667 2.31313,11.33333 0.16268,0.91667 0.56955,2.26667 0.90416,3 0.33461,0.73334 1.64909,4.33334 2.92107,8 1.27198,3.66667 2.86642,8.16667 3.5432,10 1.82095,4.93278 7.40777,15.66667 8.15424,15.66667 0.35601,0 0.80702,-0.675 1.00226,-1.5 z M 457.21929,353.16666 c 8.51794,-37.49167 15.47822,-68.69167 15.46728,-69.33334 -0.0182,-1.0654 -1.02142,-1.16666 -11.55915,-1.16666 -12.9788,0 -13.93025,-0.27607 -13.92301,-4.03981 0.003,-1.26144 1.98244,-10.77761 4.4,-21.14705 C 454.02199,247.11035 456,237.8881 456,236.98589 c 0,-1.42329 -0.90428,-2.0732 -6.83333,-4.91113 -17.24862,-8.25602 -37.82666,-13.90479 -58.5,-16.05853 -17.84338,-1.85891 -40.9855,0.81306 -60.77148,7.01662 -4.00903,1.25697 -8.02055,2.41802 -8.9145,2.58012 -0.89395,0.16211 -2.00531,0.53207 -2.46969,0.82214 -0.46439,0.29006 -1.23425,0.58647 -1.71081,0.65868 -1.11558,0.16903 -2.80019,1.56546 -2.80019,2.32116 0,0.32719 13.60706,0.58504 30.87258,0.58504 23.67799,0 31.1241,0.1942 31.95188,0.83334 0.63394,0.48947 13.91945,39.75863 32.19671,95.16666 17.11457,51.88333 31.25393,94.55833 31.4208,94.83333 0.16686,0.275 0.5254,0.5 0.79676,0.5 0.27136,0 7.46261,-30.675 15.98056,-68.16666 z m 124.32823,-43.7858 C 603.97972,302.07368 646.03333,288.406 675,279.00824 c 28.96667,-9.39777 52.94773,-17.36519 53.2912,-17.7054 1.56027,-1.5454 -9.57927,-29.8851 -19.6808,-50.06909 -7.52807,-15.042 -23.00847,-40.56709 -24.603,-40.56709 -0.38653,0 -26.93231,18.05299 -58.99063,40.11774 l -58.28786,40.11775 -3.43554,14.38225 c -1.88954,7.91024 -3.86046,15.05726 -4.37982,15.88226 -0.92666,1.472 -1.187,1.5 -13.94542,1.5 -15.06183,0 -13.22992,-1.08321 -15.46092,9.14204 l -1.3401,6.14204 3.79604,8.19129 c 2.08783,4.50521 4.48681,10.06629 5.33107,12.35796 0.91677,2.48849 1.92418,4.16667 2.50125,4.16667 0.53144,0 19.31986,-5.97861 41.75205,-13.2858 z"
         />
    </g>
  </g>
</svg>
